<?xml version="1.0" encoding="UTF-8" standalone="no"?>
<svg
   width="24"
   height="24"
   version="1.1"
   viewBox="0 0 24 24"
   xml:space="preserve"
   id="svg88237"
   sodipodi:docname="add-element.svg"
   inkscape:version="1.2.2 (732a01da63, 2022-12-09)"
   xmlns:inkscape="http://www.inkscape.org/namespaces/inkscape"
   xmlns:sodipodi="http://sodipodi.sourceforge.net/DTD/sodipodi-0.dtd"
   xmlns="http://www.w3.org/2000/svg"
   xmlns:svg="http://www.w3.org/2000/svg"
   xmlns:rdf="http://www.w3.org/1999/02/22-rdf-syntax-ns#"
   xmlns:cc="http://creativecommons.org/ns#"
   xmlns:dc="http://purl.org/dc/elements/1.1/"><sodipodi:namedview
     id="namedview88239"
     pagecolor="#ffffff"
     bordercolor="#000000"
     borderopacity="0.25"
     inkscape:showpageshadow="2"
     inkscape:pageopacity="0.0"
     inkscape:pagecheckerboard="true"
     inkscape:deskcolor="#d1d1d1"
     showgrid="false"
     inkscape:zoom="22.714889"
     inkscape:cx="11.160081"
     inkscape:cy="6.73567"
     inkscape:window-width="1350"
     inkscape:window-height="1205"
     inkscape:window-x="3359"
     inkscape:window-y="86"
     inkscape:window-maximized="0"
     inkscape:current-layer="svg88237" /><metadata
     id="metadata88221"><rdf:RDF><cc:Work
         rdf:about=""><dc:format>image/svg+xml</dc:format><dc:type
           rdf:resource="http://purl.org/dc/dcmitype/StillImage" /></cc:Work></rdf:RDF></metadata><defs
     id="defs88229"><style
       id="style88223">.cls-1{fill:#fff;}</style><style
       id="style88225">.cls-1{fill:none;stroke:#000;stroke-linecap:square;stroke-miterlimit:10;stroke-width:16px;}</style><style
       id="style88227">.cls-1{fill:none;stroke:#000;stroke-linecap:square;stroke-miterlimit:10;stroke-width:16px;}</style></defs><path
     fill="#000000"
     d="M 22.692575,1.4710346 A 1.2204652,1.373382 0 0 1 22.576631,3.4075032 L 3.0491868,22.634852 A 1.2204652,1.373382 0 1 1 1.4430546,20.567911 L 20.970499,1.3405633 a 1.2204652,1.373382 0 0 1 1.720856,0.1304713 z m 0,8.7553104 a 1.2204652,1.373382 0 0 1 -0.115944,1.936469 L 11.941497,22.636225 A 1.2208509,1.373816 0 1 1 10.334144,20.567911 L 20.969278,10.095874 a 1.2204652,1.373382 0 0 1 1.723297,0.130471 z m -1.723297,7.938148 a 1.2204652,1.373382 0 0 1 1.717196,1.946083 l -0.109843,0.12223 -2.440931,2.403419 a 1.2204652,1.373382 0 0 1 -1.715974,-1.946082 l 0.109842,-0.122232 2.440931,-2.403418 z M 13.801486,1.4710346 A 1.2204652,1.373382 0 0 1 13.686762,3.4075032 L 3.0516278,13.880914 A 1.2208505,1.3738155 0 1 1 1.4442751,11.812601 L 12.079409,1.3405633 a 1.2204652,1.373382 0 0 1 1.720857,0.1304713 z M 4.4063443,1.3405633 A 1.2204652,1.373382 0 0 1 6.1223185,3.2866455 L 6.0136971,3.4088766 3.0516278,6.3273134 A 1.2204652,1.373382 0 0 1 1.3332127,4.3798576 l 0.1098419,-0.122231 z"
     id="path95709"
     style="stroke-width:98.5342;fill:#ffffff;fill-opacity:1" /></svg>
