<svg viewBox="0 0 24 24" xmlns="http://www.w3.org/2000/svg"><path d="M10.403 5.526a.923.923 0 0 0-1.731 0L8.036 7.24c-.861 2.329-1.21 3.219-1.856 3.864-.643.644-1.533.994-3.863 1.856L.6 13.596a.923.923 0 0 0 0 1.73l1.716.636c2.33.861 3.22 1.212 3.865 1.857.643.644.993 1.533 1.854 3.862l.636 1.716a.923.923 0 0 0 1.731 0l.635-1.716c.862-2.329 1.213-3.218 1.856-3.863.645-.644 1.534-.995 3.864-1.856l1.716-.636a.923.923 0 0 0 0-1.73l-1.716-.635c-2.33-.862-3.219-1.212-3.864-1.857S11.9 9.57 11.038 7.24zM20.25.602a.923.923 0 0 0-1.732 0l-.27.735c-.389 1.044-.5 1.29-.675 1.466s-.423.288-1.466.673l-.736.274a.923.923 0 0 0 0 1.73l.736.272c1.043.387 1.29.499 1.464.675.176.174.288.422.675 1.464l.272.736a.923.923 0 0 0 1.732 0l.272-.735c.386-1.043.498-1.29.674-1.465.175-.176.422-.288 1.465-.675l.736-.27a.923.923 0 0 0 0-1.732l-.736-.274c-1.043-.385-1.29-.498-1.465-.673s-.288-.422-.674-1.465z" clip-rule="evenodd" fill="currentColor" fill-rule="evenodd" color="#fff"/></svg>