<?xml version="1.0" encoding="UTF-8"?><svg id="Layer_1" xmlns="http://www.w3.org/2000/svg" viewBox="0 0 425.97 425.97"><path d="M48.12,119.2c-15.02,28.83-14.68,66.43,5.09,92.24,14.43,18.83,37.4,30.11,50.31,50.02,11.16,17.21,13.31,38.48,17.94,58.46,4.63,19.98,13.61,41.14,32.1,50.01,11.39,5.47,24.76,5.32,37.13,2.76,12.37-2.56,24.15-7.37,36.26-10.98,19.37-5.77,39.66-8.5,58.45-15.94,51.72-20.47,85.02-77.17,82.89-132.75-2.12-55.58-36.82-107.5-84.78-135.66-59.09-34.7-138.97-39.36-196.52-.51-16.04,10.83-29.89,25.1-38.87,42.34Z" fill="#9FA6B2"/></svg>