<?xml version="1.0" encoding="UTF-8"?><svg id="Layer_1" xmlns="http://www.w3.org/2000/svg" viewBox="0 0 425.97 425.97"><path d="M31.61,199.83c5.32-37.56,28.19-72.86,61.72-90.58,27.36-14.46,59.27-16.81,89.13-24.93,34.88-9.49,69.73-27.28,105.27-20.69,29.76,5.52,54.13,27.73,70.25,53.35,17.55,27.89,27.15,60.93,25.92,93.86-1.23,32.92-13.52,65.55-35.34,90.24-28.45,32.19-70.55,49.04-112.47,58.44-46.24,10.37-96.31,12.64-139.5-6.86-26.53-11.98-33.48-36.95-46.33-60.91-15.15-28.27-23.19-59.77-18.65-91.91Z" fill="#9FA6B2"/></svg>