<?xml version="1.0" encoding="UTF-8"?><svg id="Layer_1" xmlns="http://www.w3.org/2000/svg" viewBox="0 0 425.97 425.97"><path d="M42.44,248.44c11.25,46.75,43.46,88.03,86.08,110.3,13,6.79,27.13,11.93,41.77,12.68,14.65,.75,29.9-3.24,40.93-12.91,10.85-9.5,17.07-23.79,29.01-31.88,13.28-9,30.75-8.42,46.59-5.86,15.84,2.56,31.93,6.76,47.7,3.83,25.75-4.78,44.6-27.66,54.65-51.84,21.79-52.43,10.65-116.1-24.85-160.41-35.5-44.31-93.13-68.84-149.89-67.55-42.09,.96-83.28,15.56-117.87,39.29-32.1,22.03-48.48,55.36-55.67,93.58-4.39,23.35-4.01,47.63,1.55,70.75Z" fill="#9FA6B2"/></svg>