<?xml version="1.0" encoding="UTF-8"?><svg id="Layer_1" xmlns="http://www.w3.org/2000/svg" viewBox="0 0 425.97 425.97"><path d="M37.22,148.4C48.1,81.09,114.15,37.31,180.42,53.36c.29,.07,.58,.14,.87,.21,28.97,7.1,56.49,26.58,65.76,54.93,3.91,11.98,4.42,24.77,6.81,37.14,2.39,12.37,7.22,25.09,17.34,32.61,14.03,10.42,33.35,7.86,50.72,9.81,35.58,3.99,67.61,30.97,77.12,65.48s-4.43,74.37-33.66,95.03c-23.55,16.65-53.5,20.46-82.02,24.74-36.42,5.47-73.57,12.49-109.77,5.7-44.53-8.36-83.78-37.87-107.87-76.24-24.09-38.37-33.68-84.86-31.13-130.09,.46-8.1,1.32-16.23,2.63-24.29Z" fill="#9FA6B2"/></svg>