<svg xmlns="http://www.w3.org/2000/svg" viewBox="0 0 298.39 159.02">
  <path class="cls-1" d="M274.2,93.92c-.05.12-.12.23-.18.35,6.08,3.39,9.93,10.11,9.3,17.5-.85,10.04-9.69,17.48-19.73,16.62-6.65-.57-12.16-4.64-14.88-10.24-.09.06-.18.11-.26.15,1.25,2.76,1.83,5.86,1.56,9.09-.86,10.04-9.69,17.48-19.73,16.62-7.3-.62-13.22-5.45-15.58-11.9-.28.09-.56.17-.84.24.46,1.89.63,3.88.46,5.92-.86,10.04-9.69,17.48-19.73,16.62-8.63-.73-15.34-7.36-16.51-15.59-.08.01-.16.02-.25.03.08.98.08,1.98,0,2.99-.85,10.04-9.69,17.48-19.73,16.63-9.4-.81-16.52-8.59-16.68-17.82-.04,0-.08,0-.12,0-1.13,9.75-9.81,16.91-19.67,16.07-9.8-.83-17.12-9.27-16.67-19.01-.14-.01-.27-.04-.41-.06-1.83,8.93-10.11,15.27-19.41,14.47-10.04-.86-17.48-9.69-16.62-19.73.09-1.06.27-2.09.54-3.09-.27-.09-.54-.18-.8-.27-2.95,7.15-10.29,11.89-18.41,11.19-10.03-.86-17.48-9.69-16.62-19.73.23-2.67,1.02-5.16,2.25-7.35-.21-.15-.42-.29-.62-.44-3.69,4.08-9.18,6.45-15.09,5.95-10.04-.86-17.48-9.69-16.62-19.73.59-6.85,4.9-12.5,10.77-15.12-.11-.71-.2-1.43-.26-2.15-7.85-2.04-13.65-9.17-13.65-17.67,0-10.08,8.17-18.24,18.25-18.24,4.32,0,8.29,1.5,11.42,4.03.28-.23.57-.48.85-.71-1.89-2.87-2.99-6.31-2.99-10.02,0-10.08,8.17-18.25,18.25-18.25,7.39,0,13.75,4.39,16.62,10.71.08-.04.16-.07.24-.1-.49-1.64-.76-3.38-.76-5.19,0-10.08,8.17-18.25,18.25-18.25,8.59,0,15.79,5.94,17.73,13.93.23-.04.48-.09.71-.13-.13-.87-.2-1.76-.2-2.66,0-10.08,8.16-18.24,18.24-18.24s17.61,7.54,18.21,17.09h.04c0-.07,0-.14,0-.21,0-10.08,8.17-18.25,18.25-18.25s18.24,8.17,18.24,18.25c0,.39-.01.78-.04,1.16.07,0,.13,0,.2.01,1.14-8.96,8.81-15.88,18.08-15.88,10.08,0,18.25,8.17,18.25,18.24,0,1.23-.12,2.44-.35,3.6.03,0,.05,0,.08.02,2.12-7.73,9.19-13.4,17.58-13.4,10.08,0,18.25,8.17,18.25,18.25,0,2.61-.54,5.09-1.53,7.33.18.09.34.18.52.26,3.22-5.14,8.94-8.56,15.46-8.56,10.08,0,18.25,8.17,18.25,18.24,0,4.92-1.94,9.39-5.12,12.67.13.18.26.36.39.54,2.62-1.45,5.63-2.28,8.83-2.28,10.07,0,18.24,8.16,18.24,18.24s-8.17,18.25-18.24,18.25c-2.08,0-4.09-.35-5.95-1Z" fill="#9FA6B2"/>
</svg>