<svg xmlns="http://www.w3.org/2000/svg" viewBox="0 0 255.54 255.54">
  <polygon class="cls-1" points="127.77 0 134.72 153.98 167.25 6.25 149.48 158.78 202.87 24.4 162.03 167.9 231.14 52.67 171.16 180.46 249.28 88.29 175.95 195.21 255.54 127.77 175.95 210.73 249.28 167.25 171.16 225.49 231.14 202.87 162.04 238.04 202.87 231.14 149.48 247.17 167.25 249.28 134.72 251.96 127.77 255.54 119.2 251.96 88.29 249.28 104.44 247.17 52.67 231.14 91.89 238.04 24.4 202.87 82.77 225.49 6.25 167.25 77.97 210.73 0 127.77 77.97 195.21 6.25 88.29 82.77 180.46 24.4 52.67 91.88 167.9 52.67 24.4 104.44 158.78 88.29 6.25 119.2 153.99 127.77 0" fill="#9FA6B2"/>
</svg>