<svg id="Layer_1" xmlns="http://www.w3.org/2000/svg" viewBox="0 0 679 418.25"><path d="M678.72,55.83c-3.6-.36-18.72,.04-21.18-3.23-1.14-6.12,24.38,.82,21.18,3.23-88.75,61.57,38.04,162.17-54.08,278.99,.13-3.44-1.24-6.87-2.27-10.79,0,0,1.72,8.18,1.72,8.18,0,0,.55,2.61,.55,2.61-141.66-79.06-260.57,143.75-411.41,68.65-37.26-14.04-70.14-36.57-108.05-48.44-33.92-10.2-68.46,7.74-103.32,1.24-2.62-2.29-1.71-5.22-1.68-7.91,.61-20.62-3.94-41.37-2.08-61.87,.76-53.71-3.18-173.74-.54-225.85,74.75-37.24,153.54,8.2,224.47,32,75.63,36.8,148.21-15.43,211.26-52.82,74.08-49.96,189.58-58.98,245.43,16.01Z" fill="#9FA6B2"/></svg>