<?xml version="1.0" encoding="UTF-8"?><svg id="Layer_1" xmlns="http://www.w3.org/2000/svg" viewBox="0 0 425.97 124.97"><path d="M112.87,63.84h0c0-7.8-6.32-14.12-14.12-14.12h0c-5.3,0-9.6-4.3-9.6-9.6v-3.04c0-5.3,4.3-9.6,9.6-9.6h166.45c5.61,0,10.16,4.55,10.16,10.16h0c0,5.61-4.55,10.16-10.16,10.16h-43.95c-3.32,0-6.01,2.69-6.01,6.01h0c0,3.32,2.69,6.01,6.01,6.01h165.04c4.85,0,8.78,3.93,8.78,8.78h0c0,4.85-3.93,8.78-8.78,8.78H216.57c-6.61,0-11.97,5.36-11.97,11.97h0c0,6.61-5.36,11.97-11.97,11.97H48.6c-6.4,0-11.59-5.19-11.59-11.59h0c0-6.39,5.17-11.57,11.55-11.59l50.23-.17c7.78-.03,14.07-6.34,14.07-14.12Z" fill="#9FA6B2"/></svg>