<?xml version="1.0" encoding="UTF-8"?><svg id="Layer_1" xmlns="http://www.w3.org/2000/svg" viewBox="0 0 503.97 129.97"><path d="M120.2,36.27h0c0,4.57,3.71,8.28,8.28,8.28h95.46c1.76,0,3.19,1.43,3.19,3.19h0c0,1.76-1.43,3.19-3.19,3.19H28.95c-4.26,0-7.71,3.45-7.71,7.71h0c0,4.26,3.45,7.71,7.71,7.71H172.6c4.19,0,7.58,3.39,7.58,7.58h0c0,4.19,3.39,7.58,7.58,7.58h113.72c3.6,0,6.52,2.92,6.52,6.52h0c0,3.6-2.92,6.52-6.52,6.52h-27.53c-3.82,0-6.92,3.1-6.92,6.92h0c0,3.82,3.1,6.92,6.92,6.92h124.23c4.85,0,8.78-3.93,8.78-8.78h0c0-4.85-3.93-8.78-8.78-8.78h-50.01c-3.67,0-6.65-2.98-6.65-6.65h0c0-3.67,2.98-6.65,6.65-6.65h27.13c6.02,0,10.91-4.88,10.91-10.91h0c0-6.02-4.88-10.91-10.91-10.91h-23.68c-2.06,0-3.72-1.67-3.72-3.72h0c0-2.06,1.67-3.72,3.72-3.72h84.9c6.29,0,11.39-5.1,11.39-11.39h0c0-6.33-5.16-11.44-11.48-11.39l-308.03,2.5c-4.55,.04-8.21,3.73-8.21,8.28Z" fill="#9FA6B2"/></svg>