<svg height='400px' width='400px'  fill="#9FA6B2" xmlns="http://www.w3.org/2000/svg" xmlns:xlink="http://www.w3.org/1999/xlink" version="1.1" x="0px" y="0px" viewBox="0 0 100 100" style="enable-background:new 0 0 100 100;" xml:space="preserve"><path d="M82.0712738,41.9634972c-0.8068924,0-1.5847015,0.1220207-2.3194122,0.3434105  c-0.7281265-2.7753677-1.832962-5.4436607-3.2799835-7.9211426c11.7335663-7.5497379-3.338028-22.6129417-10.8760681-10.8796749  c-2.476635-1.4475422-5.1440735-2.552702-7.9185181-3.2810688c2.9602852-13.6380768-18.3448524-13.6286469-15.3810883,0  c-2.7744446,0.7283669-5.4418869,1.8335304-7.9185143,3.2810688c-7.5471725-11.7374716-22.6054325,3.3390675-10.8760738,10.8796749  c-1.4470234,2.4774857-2.5518532,5.1457787-3.2799816,7.9211426c-13.6335106-2.9612045-13.6241798,18.3507652,0,15.3861809  c0.7281399,2.7753601,1.8329926,5.4436722,3.2799816,7.9211388c-11.7335644,7.5496902,3.3380642,22.6129608,10.8760738,10.879631  c2.4766159,1.4475708,5.144062,2.5526581,7.9184685,3.2811127c-2.9600525,13.6380844,18.3447189,13.6286545,15.3811798,0  c2.7744141-0.7284546,5.4418602-1.8335419,7.9184723-3.2811127c7.5471344,11.7375412,22.6054306-3.3390732,10.8760681-10.879631  c1.4469986-2.4774704,2.5518494-5.1457825,3.2799835-7.9211388C91.5654984,60.6610413,94.2359619,42.5349617,82.0712738,41.9634972z  "></path></svg>