<svg height='400px' width='400px'  fill="#9FA6B2" xmlns="http://www.w3.org/2000/svg" xmlns:xlink="http://www.w3.org/1999/xlink" version="1.1" x="0px" y="0px" viewBox="0 0 100 100" style="enable-background:new 0 0 100 100;" xml:space="preserve"><path d="M55.2660942,10.0000153L55.266098,10l0.0000038,0.0000153c0.4221573,5.2403965,7.1875153,7.0531693,10.1733131,2.7259312  l0.0000076-0.0000124v0.0000153c-0.9485474,5.1710958,5.1171112,8.6731043,9.1211395,5.2660952l0.0000153-0.0000114  l-0.0000076,0.0000153c-2.2546005,4.7493954,2.6979904,9.7019825,7.4473801,7.447382l0.0000153-0.0000057l-0.0000076,0.0000114  c-3.4070129,4.0040302,0.0949936,10.069685,5.2660904,9.1211414h0.0000153l-0.0000076,0.0000076  c-4.32724,2.9857979-2.5144653,9.7511559,2.7259293,10.1733131L90,44.733902l-0.0000153,0.0000038  c-4.9525681,1.7640877-4.9525681,8.7681007,0,10.5321884L90,55.266098l-0.0000153,0.0000038  c-5.2403946,0.4221573-7.0531693,7.1875153-2.7259293,10.1733131l0.0000076,0.0000076h-0.0000153  c-5.1710968-0.9485474-8.6731033,5.1171112-5.2660904,9.1211395l0.0000076,0.0000153l-0.0000153-0.0000076  c-4.7493896-2.2546005-9.7019806,2.6979904-7.4473801,7.4473801l0.0000076,0.0000153l-0.0000153-0.0000076  c-4.0040283-3.4070129-10.0696869,0.0949936-9.1211395,5.2660904v0.0000153l-0.0000076-0.0000076  c-2.9857979-4.32724-9.7511559-2.5144653-10.1733131,2.7259293L55.266098,90l-0.0000038-0.0000153  c-1.7640877-4.9525681-8.7681007-4.9525681-10.5321884,0L44.733902,90l-0.0000038-0.0000153  c-0.4221573-5.2403946-7.1875153-7.0531693-10.1733131-2.7259293l-0.0000076,0.0000076v-0.0000153  c0.9485435-5.1710968-5.1171112-8.6731033-9.1211414-5.2660904l-0.0000114,0.0000076l0.0000057-0.0000153  c2.2546005-4.7493896-2.6979866-9.7019806-7.447382-7.4473801l-0.0000153,0.0000076l0.0000114-0.0000153  c3.4070091-4.0040283-0.0949993-10.0696869-5.2660952-9.1211395H12.725934l0.0000124-0.0000076  c4.3272381-2.9857979,2.5144653-9.7511559-2.7259312-10.1733131L10,55.266098l0.0000153-0.0000038  c4.9525719-1.7640877,4.9525719-8.7681007,0-10.5321884L10,44.733902l0.0000153-0.0000038  c5.2403965-0.4221573,7.0531693-7.1875153,2.7259312-10.1733131l-0.0000124-0.0000076h0.0000153  c5.1710958,0.9485435,8.6731043-5.1171112,5.2660952-9.1211414l-0.0000114-0.0000114l0.0000153,0.0000057  c4.7493954,2.2546005,9.7019825-2.6979866,7.447382-7.447382l-0.0000057-0.0000153l0.0000114,0.0000114  c4.0040302,3.4070091,10.069685-0.0949993,9.1211414-5.2660952V12.725934l0.0000076,0.0000124  c2.9857979,4.3272381,9.7511559,2.5144653,10.1733131-2.7259312L44.733902,10l0.0000038,0.0000153  C46.4979935,14.9525871,53.5020065,14.9525871,55.2660942,10.0000153z"></path></svg>