<svg height='400px' width='400px'  fill="#9FA6B2" xmlns="http://www.w3.org/2000/svg" xmlns:xlink="http://www.w3.org/1999/xlink" version="1.1" x="0px" y="0px" viewBox="0 0 100 100" style="enable-background:new 0 0 100 100;" xml:space="preserve"><path d="M39.7407837,11.3338623c2.7887573,4.9821167,1.0687866,11.2937622-3.8909912,14.1572876  c-4.9578857,2.8624268-11.2808228,1.1983032-14.2025757-3.7035522c-4.8335571,4.8574219-8.4205322,10.9515991-10.2597046,17.7641602  C17.0950928,39.6293335,21.699646,44.2739868,21.699646,50s-4.6045532,10.3706665-10.3121338,10.4482422  c1.8391724,6.812561,5.4261475,12.9067383,10.2597046,17.7641602c2.9217529-4.9018555,9.2446899-6.565979,14.2025757-3.7035522  c4.9597778,2.8635254,6.6797485,9.1751709,3.8909912,14.1572876C43.0155029,89.5327759,46.4526978,90,50,90  c3.5472412,0,6.984436-0.4671631,10.2591553-1.3338013c-2.7887573-4.9821167-1.0687256-11.2938232,3.8909912-14.1573486  c4.9578857-2.8624268,11.2808838-1.1983643,14.2026367,3.7034912c4.8334961-4.8574219,8.4205322-10.9515991,10.2597046-17.7640991  C82.9049683,60.3706665,78.300354,55.7260132,78.300354,50s4.6046143-10.3706665,10.3121338-10.4482422  c-1.8391724-6.8125-5.4262085-12.9066772-10.2597046-17.7640991c-2.9217529,4.9018555-9.244751,6.565918-14.2026367,3.7034912  c-4.9597168-2.8635254-6.6797485-9.1752319-3.8909912-14.1573486C56.984436,10.4671631,53.5472412,10,50,10  C46.4526978,10,43.0155029,10.4672241,39.7407837,11.3338623z"></path></svg>