<svg height='400px' width='400px'  fill="#9FA6B2" xmlns="http://www.w3.org/2000/svg" xmlns:xlink="http://www.w3.org/1999/xlink" version="1.1" x="0px" y="0px" viewBox="0 0 100 100" style="enable-background:new 0 0 100 100;" xml:space="preserve"><path d="M82.3206329,49.9894714c0-4.8795815,3.2371979-8.9992027,7.6793671-10.3376961  c-0.9748688-3.7848091-2.4798965-7.3546448-4.4185333-10.6378345c-4.0855103,2.1884766-9.2808914,1.5626659-12.7273331-1.8846188  c-3.4464417-3.4473495-4.0720825-8.6440296-1.8841171-12.7306805C67.6885681,12.4599962,64.1105347,10.9771395,60.3291779,10  c-0.4982109,1.6456289-1.3946114,3.1965075-2.6950607,4.4973011c-4.2162247,4.2173347-11.0520096,4.2173347-15.2682343,0  C41.0654335,13.1965075,40.1690331,11.6456289,39.6708221,10c-3.781353,0.9771395-7.3593903,2.4599962-10.6408348,4.3986416  c2.1879654,4.0866508,1.5623188,9.2833309-1.8841228,12.7306805c-3.4464417,3.4472847-8.641819,4.0730953-12.7273302,1.8846188  C12.4798956,32.2971306,10.9748659,35.8669662,10,39.6517754c4.4421682,1.3384933,7.679369,5.4581146,7.679369,10.3376961  S14.4421682,58.988739,10,60.3271675c0.974803,3.7848091,2.4798956,7.3546486,4.4185343,10.6378365  c4.0855112-2.1885376,9.2808886-1.5627289,12.7273302,1.8846207s4.0720882,8.6440277,1.8841228,12.7306747  C32.3123741,87.519516,35.8811493,89.0248795,39.664959,90C41.0030365,85.5566635,45.1216393,82.3186111,50,82.3186111  S58.9969635,85.5566635,60.335041,90c3.7838097-0.9751205,7.352581-2.480484,10.6349754-4.4197006  c-2.1879654-4.086647-1.5623245-9.2833252,1.8841171-12.7306747s8.6418228-4.0731583,12.7273331-1.8846207  C87.5201035,67.6818161,89.0251999,64.1119766,90,60.3271675C85.5578308,58.988739,82.3206329,54.8690567,82.3206329,49.9894714z"></path></svg>