<svg height='400px' width='400px'  fill="#9FA6B2" xmlns="http://www.w3.org/2000/svg" xmlns:xlink="http://www.w3.org/1999/xlink" version="1.1" x="0px" y="0px" viewBox="0 0 100 100" style="enable-background:new 0 0 100 100;" xml:space="preserve"><path d="M90,50c0-6.1575928-4.4580078-11.2627563-10.3199463-12.2938843  c3.4158936-4.8741455,2.958374-11.6363525-1.395752-15.9904175s-11.1162109-4.8117676-15.9903564-1.395813  C61.2626953,14.4579468,56.1575928,10,50,10s-11.2626953,4.4579468-12.2939453,10.3198853  c-4.8741455-3.4159546-11.6362305-2.958252-15.9903564,1.395813s-4.8116455,11.116272-1.395752,15.9904175  C14.4580078,38.7372437,10,43.8424072,10,50c0,6.1575317,4.4580078,11.2627563,10.3198242,12.2938843  c-3.4158936,4.8741455-2.958252,11.6362915,1.395874,15.9903564s11.1162109,4.8117676,15.9903564,1.395813  C38.7373047,85.5420532,43.8424072,90,50,90s11.2626953-4.4579468,12.2939453-10.3199463  c4.8741455,3.4159546,11.6362305,2.958252,15.9903564-1.395813s4.8117676-11.1162109,1.395874-15.9903564  C85.5419922,61.2627563,90,56.1575317,90,50z"></path></svg>