<svg height='400px' width='400px'  fill="#9FA6B2" xmlns="http://www.w3.org/2000/svg" xmlns:xlink="http://www.w3.org/1999/xlink" version="1.1" x="0px" y="0px" viewBox="0 0 100 100" style="enable-background:new 0 0 100 100;" xml:space="preserve"><path d="M56.1967659,12.1450357l0.0000191-0.0000153c6.1683159-4.8175149,15.2337799-1.0624771,16.188942,6.705678v0.0000248  c0.5639038,4.5861645,4.1773834,8.1996422,8.7635498,8.7635498l0.0000229,0.0000038  c7.768158,0.9551601,11.5231934,10.0206223,6.7056808,16.1889381l-0.0000153,0.0000191  c-2.8441696,3.6416512-2.8441696,8.7518806,0,12.3935318l0.0000153,0.0000191  c4.8175125,6.1683159,1.0624771,15.2337799-6.7056808,16.188942h-0.0000229  c-4.5861664,0.5639038-8.199646,4.1773834-8.7635498,8.7635498v0.0000229  c-0.955162,7.768158-10.0206261,11.5231934-16.188942,6.7056808l-0.0000191-0.0000153  c-3.6416512-2.8441696-8.7518806-2.8441696-12.3935318,0l-0.0000191,0.0000153  c-6.1683159,4.8175125-15.233778,1.0624771-16.1889381-6.7056808l-0.0000038-0.0000229  c-0.5639076-4.5861664-4.1773853-8.199646-8.7635498-8.7635498h-0.0000248  c-7.7681551-0.955162-11.5231934-10.0206261-6.705678-16.188942l0.0000153-0.0000191  c2.8441658-3.6416512,2.8441658-8.7518806,0-12.3935318l-0.0000153-0.0000191  c-4.8175149-6.1683159-1.0624771-15.233778,6.705678-16.1889381l0.0000248-0.0000038  c4.5861645-0.5639076,8.1996422-4.1773853,8.7635498-8.7635498l0.0000038-0.0000248  c0.9551601-7.7681551,10.0206223-11.5231934,16.1889381-6.705678l0.0000191,0.0000153  C47.4448853,14.9892015,52.5551147,14.9892015,56.1967659,12.1450357z"></path></svg>