<svg height='400px' width='400px'  fill="#9FA6B2" xmlns="http://www.w3.org/2000/svg" xmlns:xlink="http://www.w3.org/1999/xlink" version="1.1" x="0px" y="0px" viewBox="0 0 100 100" style="enable-background:new 0 0 100 100;" xml:space="preserve"><path d="M25.1464844,20.3544922C27.6425781,22.8505859,30,25.2084961,30,30.0014648c0,4.793457,0,35.2080078,0,40.0004883  s-2.3574219,7.1499023-4.8535156,9.6455078C22.6162109,82.1772461,20,84.793457,20,90h60  c0-5.2075195-2.6162109-7.8242188-5.1464844-10.3544922C72.3574219,77.1494141,70,74.7915039,70,69.9985352  c0-4.793457,0-35.2080078,0-40.0004883s2.3574219-7.1499023,4.8535156-9.6455078C77.3837891,17.8227539,80,15.206543,80,10H20  C20,15.2075195,22.6162109,17.8242188,25.1464844,20.3544922z"></path></svg>