<svg height='400px' width='400px'  fill="#9FA6B2" xmlns="http://www.w3.org/2000/svg" xmlns:xlink="http://www.w3.org/1999/xlink" version="1.1" x="0px" y="0px" viewBox="0 0 100 100" style="enable-background:new 0 0 100 100;" xml:space="preserve"><g><path d="M69.9985352,47.7993507c-5.2075195,0-7.8242188-2.6162109-10.3544922-5.1464844   c-2.4960938-2.4960938-4.8540039-4.8535156-9.6474609-4.8535156c-4.7924805,0-7.1499023,2.3574219-9.6455078,4.8535156   c-2.5297852,2.5302734-5.1459961,5.1464844-10.3530273,5.1464844c-5.206543,0-7.8227539-2.6162109-10.3525391-5.1464844   C17.1499023,40.1567726,14.7924805,37.7993507,10,37.7993507V10c5.206543,0,7.8227539,2.6162109,10.3525391,5.1464844   C22.8481445,17.6425781,25.2055664,20,29.9980469,20s7.1499023-2.3574219,9.6459961-4.8535156   C42.1738281,12.6162109,44.7900391,10,49.996582,10c5.2075195,0,7.8242188,2.6162109,10.3544922,5.1464844   C62.847168,17.6425781,65.2050781,20,69.9985352,20c4.7929688,0,7.1508789-2.3574219,9.6469727-4.8535156   C82.1757812,12.6162109,84.7924805,10,90,10v27.7993507c-4.793457,0-7.1513672,2.3574219-9.6474609,4.8535156   C77.8222656,45.1831398,75.2060547,47.7993507,69.9985352,47.7993507z"></path></g><g><path d="M69.9985352,90c-5.2075195,0-7.8242188-2.6162109-10.3544922-5.1464844C57.1479492,82.3574219,54.7900391,80,49.996582,80   c-4.7924805,0-7.1499023,2.3574219-9.6455078,4.8535156C37.8212891,87.3837891,35.2050781,90,29.9980469,90   c-5.206543,0-7.8227539-2.6162109-10.3525391-5.1464844C17.1499023,82.3574219,14.7924805,80,10,80V52.2006493   c5.206543,0,7.8227539,2.6162109,10.3525391,5.1464844c2.4956055,2.4960938,4.8530273,4.8535156,9.6455078,4.8535156   s7.1499023-2.3574219,9.6459961-4.8535156c2.5297852-2.5302734,5.1459961-5.1464844,10.3525391-5.1464844   c5.2075195,0,7.8242188,2.6162109,10.3544922,5.1464844c2.4960938,2.4960938,4.8540039,4.8535156,9.6474609,4.8535156   c4.7929688,0,7.1508789-2.3574219,9.6469727-4.8535156C82.1757812,54.8168602,84.7924805,52.2006493,90,52.2006493V80   c-4.793457,0-7.1513672,2.3574219-9.6474609,4.8535156C77.8222656,87.3837891,75.2060547,90,69.9985352,90z"></path></g></svg>