<svg height='400px' width='400px'  fill="#9FA6B2" xmlns="http://www.w3.org/2000/svg" xmlns:xlink="http://www.w3.org/1999/xlink" version="1.1" x="0px" y="0px" viewBox="0 0 100 100" style="enable-background:new 0 0 100 100;" xml:space="preserve"><path d="M85.1608887,43.09021c1.9963379-5.7995605,1.0917969-12.4592896-3.0155029-17.6098022  S71.74646,17.9662476,65.6480713,18.6219482C62.3583984,13.4451904,56.5877686,10,50,10s-12.3583984,3.4451904-15.6480713,8.6219482  c-6.0983887-0.6557007-12.3899536,1.7079468-16.4973145,6.8584595S12.8428345,37.2906494,14.8391113,43.09021  c-4.3149414,4.3590698-6.3897095,10.75177-4.9237671,17.1743164c1.4659424,6.4226074,6.1088257,11.2820435,11.8878174,13.3372192  c0.7177734,6.0914307,4.4221191,11.6992188,10.3574829,14.5574951C38.0960083,91.0175781,44.7900391,90.4174194,50,87.180603  c5.2099609,3.2368164,11.9039917,3.8369751,17.8393555,0.9786377c5.9353027-2.8582764,9.6396484-8.4660645,10.3574219-14.5574951  c5.7790527-2.0551758,10.421875-6.9146118,11.8879395-13.3372192C91.5505371,53.84198,89.4758301,47.4492798,85.1608887,43.09021z"></path></svg>