<svg height='400px' width='400px'  fill="#9FA6B2" xmlns="http://www.w3.org/2000/svg" xmlns:xlink="http://www.w3.org/1999/xlink" version="1.1" x="0px" y="0px" viewBox="0 0 100 100" style="enable-background:new 0 0 100 100;" xml:space="preserve"><path d="M90,50c0-5.578064-2.5337524-10.5623779-6.5106201-13.8717041  c0.4720459-5.1521606-1.2607422-10.4682617-5.2050781-14.4125977s-9.260498-5.677124-14.4125977-5.2050781  C60.5623779,12.5337524,55.578064,10,50,10s-10.5623779,2.5337524-13.8717041,6.5106201  c-5.1520996-0.4720459-10.4682617,1.2607422-14.4125977,5.2050781s-5.677124,9.260437-5.2050781,14.4125977  C12.5337524,39.4376221,10,44.421936,10,50s2.5337524,10.5623779,6.5106201,13.8717041  c-0.4719849,5.1520996,1.2608032,10.4682617,5.2050781,14.4125366c3.9443359,3.9442749,9.260437,5.677063,14.4125366,5.2050781  C39.437561,87.4661865,44.421875,90,50,90s10.562439-2.5338135,13.8717651-6.5106812  c5.1520996,0.4719849,10.4682007-1.2608032,14.4125366-5.2050781c3.9442749-3.9442749,5.677063-9.260437,5.2050781-14.4125366  C87.4662476,60.5623779,90,55.578064,90,50z"></path></svg>