<svg height='400px' width='400px'  fill="#9FA6B2" xmlns="http://www.w3.org/2000/svg" xmlns:xlink="http://www.w3.org/1999/xlink" version="1.1" x="0px" y="0px" viewBox="0 0 100 100" style="enable-background:new 0 0 100 100;" xml:space="preserve"><path d="M15.1464844,20.3544922C17.6425781,22.8505859,20,25.2084961,20,30.0014648  c0,4.793457-2.3574219,7.1513672-4.8535156,9.6474609C12.6162109,42.1791992,10,44.7958984,10,50.003418  c0,5.206543,2.6162109,7.8227539,5.1464844,10.3525391C17.6425781,62.8520508,20,65.2094727,20,70.0019531  s-2.3574219,7.1499023-4.8535156,9.6455078C12.6162109,82.1772461,10,84.793457,10,90h80  c0-5.2075195-2.6162109-7.8242188-5.1464844-10.3544922C82.3574219,77.1494141,80,74.7915039,80,69.9985352  c0-4.793457,2.3574219-7.1513672,4.8535156-9.6474609C87.3837891,57.8208008,90,55.2041016,90,49.996582  c0-5.206543-2.6162109-7.8227539-5.1464844-10.3525391C82.3574219,37.1479492,80,34.7905273,80,29.9980469  s2.3574219-7.1499023,4.8535156-9.6455078C87.3837891,17.8227539,90,15.206543,90,10H10  C10,15.2075195,12.6162109,17.8242188,15.1464844,20.3544922z"></path></svg>