<svg height='400px' width='400px'  fill="#9FA6B2" xmlns="http://www.w3.org/2000/svg" xmlns:xlink="http://www.w3.org/1999/xlink" version="1.1" x="0px" y="0px" viewBox="0 0 100 100" style="enable-background:new 0 0 100 100;" xml:space="preserve"><path d="M84.6410065,69.9999771L84.6410141,70h-0.0000229c-13.9903336,1.0429916-26.7425537,8.4054947-34.6409798,19.9999847L50,90  l-0.0000114-0.0000153C42.1015625,78.4054947,29.3493404,71.0429916,15.3590059,70H15.358984l0.0000095-0.0000229  c6.0919075-12.6374779,6.0919075-27.3624763,0-39.999958L15.358984,30l0.0000219-0.0000019  c13.9903345-1.0429935,26.7425575-8.4054909,34.6409836-19.9999809L50,10l0.0000114,0.0000181  c7.8984261,11.5944891,20.6506462,18.9569855,34.6409798,19.9999809L84.6410141,30l-0.0000076,0.0000191  C78.5490952,42.6375008,78.5490952,57.3624992,84.6410065,69.9999771z"></path></svg>