<svg height='400px' width='400px'  fill="#9FA6B2" xmlns="http://www.w3.org/2000/svg" xmlns:xlink="http://www.w3.org/1999/xlink" version="1.1" x="0px" y="0px" viewBox="0 0 100 100" style="enable-background:new 0 0 100 100;" xml:space="preserve"><path d="M81.5303955,58.3909302c-0.0333862-0.0192871-0.0682373-0.0333252-0.1017456-0.052063  C82.1331177,55.677124,82.5128784,52.8833008,82.5128784,50s-0.3797607-5.677124-1.0842285-8.3388672  c0.0335083-0.0187378,0.0683594-0.0327759,0.1017456-0.052063C85.5950928,39.2622681,86.987793,34.0646973,84.6409912,30  c-2.3467407-4.0647583-7.5443115-5.4574585-11.6090698-3.1106567c-0.0349121,0.0201416-0.0658569,0.0443115-0.1003418,0.0648804  c-3.9482422-3.928772-8.9016113-6.8442993-14.4390259-8.3392334c0.0005493-0.0392456,0.0058594-0.0772095,0.0058594-0.1165771  C58.4984131,13.8048706,54.6935425,10,50,10s-8.4984131,3.8048706-8.4984131,8.4984131  c0,0.0393677,0.0053101,0.0773315,0.0058594,0.1165771c-5.5374146,1.4949341-10.4907837,4.4104614-14.4390259,8.3392334  c-0.0344849-0.0205688-0.0654297-0.0447388-0.1003418-0.0648804C22.9033203,24.5425415,17.7057495,25.9352417,15.3590088,30  c-2.3468018,4.0646973-0.9541016,9.2622681,3.1105957,11.6090698c0.0333862,0.0192871,0.0682373,0.0333252,0.1017456,0.052063  C17.8668823,44.322876,17.4871216,47.1166992,17.4871216,50s0.3797607,5.677124,1.0842285,8.3388672  c-0.0335083,0.0187378-0.0683594,0.0327759-0.1017456,0.052063C14.4049072,60.7376709,13.012207,65.9352417,15.3590088,70  c2.3467407,4.0646973,7.5443115,5.4573975,11.6090698,3.1106567c0.0349121-0.0201416,0.0658569-0.0443115,0.1003418-0.0648804  c3.9482422,3.928772,8.9016113,6.8442993,14.4390259,8.3392334c-0.0005493,0.0391846-0.0058594,0.0772095-0.0058594,0.1165161  C41.5015869,86.1951294,45.3064575,90,50,90s8.4984131-3.8048706,8.4984131-8.4984741  c0-0.0393066-0.0053101-0.0773315-0.0058594-0.1165161c5.5374146-1.4949341,10.4907837-4.4104614,14.4390259-8.3392334  c0.0344849,0.0205688,0.0654297,0.0447388,0.1003418,0.0648804C77.0966797,75.4573975,82.2942505,74.0646973,84.6409912,70  C86.987793,65.9352417,85.5950928,60.7376709,81.5303955,58.3909302z"></path></svg>