<svg height='400px' width='400px'  fill="#9FA6B2" xmlns="http://www.w3.org/2000/svg" xmlns:xlink="http://www.w3.org/1999/xlink" version="1.1" x="0px" y="0px" viewBox="0 0 100 100" style="enable-background:new 0 0 100 100;" xml:space="preserve"><path d="M53.5726624,12.1189852l0.0000076-0.0000181c1.915657-3.4935703,7.190155-2.4444084,7.6230545,1.5163202l0.0000038,0.00002  c0.3495178,3.1978321,4.0930595,4.7484589,6.6014137,2.734396l0.0000229-0.0000134  c3.1067657-2.4945478,7.5782623,0.4932156,6.4625092,4.3181152l-0.0000076,0.0000191  c-0.9008408,3.0881672,1.9643402,5.9533501,5.0525055,5.0525055l0.0000229-0.0000057  c3.8248978-1.1157551,6.8126602,3.3557491,4.3181152,6.4625149l-0.0000153,0.0000153  c-2.014061,2.508358-0.4634323,6.2518997,2.7343979,6.6014175l0.0000229,0.0000038  c3.9607239,0.4328995,5.0098877,5.7073975,1.5163193,7.6230545l-0.0000229,0.0000076  c-2.8206558,1.5466728-2.8206558,5.5986519,0,7.1453247l0.0000229,0.0000076  c3.4935684,1.915657,2.4444046,7.190155-1.5163193,7.6230545l-0.0000229,0.0000038  c-3.1978302,0.3495178-4.7484589,4.0930595-2.7343979,6.6014137l0.0000153,0.0000229  c2.494545,3.1067657-0.4932175,7.5782623-4.3181152,6.4625092l-0.0000229-0.0000076  c-3.0881653-0.9008408-5.9533463,1.9643402-5.0525055,5.0525055l0.0000076,0.0000229  c1.1157532,3.8248978-3.3557434,6.8126602-6.4625092,4.3181152l-0.0000229-0.0000153  c-2.5083542-2.014061-6.2518959-0.4634323-6.6014137,2.7343979l-0.0000038,0.0000229  c-0.4328995,3.9607239-5.7073975,5.0098877-7.6230545,1.5163193l-0.0000076-0.0000229  c-1.5466728-2.8206558-5.5986519-2.8206558-7.1453247,0L46.42733,87.8810349  c-1.915657,3.4935684-7.190155,2.4444046-7.6230545-1.5163193l-0.0000038-0.0000229  c-0.3495178-3.1978302-4.0930595-4.7484589-6.6014175-2.7343979l-0.0000153,0.0000153  c-3.1067657,2.494545-7.57827-0.4932175-6.4625149-4.3181152l0.0000057-0.0000229  c0.9008446-3.0881653-1.9643383-5.9533463-5.0525055-5.0525055l-0.0000191,0.0000076  c-3.8248997,1.1157532-6.8126631-3.3557434-4.3181152-6.4625092l0.0000134-0.0000229  c2.0140629-2.5083542,0.4634361-6.2518959-2.734396-6.6014137l-0.00002-0.0000038  C9.6745586,60.762825,8.6253967,55.488327,12.1189671,53.57267l0.0000181-0.0000076  c2.8206568-1.5466728,2.8206568-5.5986519,0-7.1453247L12.1189671,46.42733  c-3.4935703-1.915657-2.4444084-7.190155,1.5163202-7.6230545l0.00002-0.0000038  c3.1978321-0.3495178,4.7484589-4.0930595,2.734396-6.6014175l-0.0000134-0.0000153  c-2.4945478-3.1067657,0.4932156-7.57827,4.3181152-6.4625149l0.0000191,0.0000057  c3.0881672,0.9008446,5.9533501-1.9643383,5.0525055-5.0525055l-0.0000057-0.0000191  c-1.1157551-3.8248997,3.3557491-6.8126631,6.4625149-4.3181152l0.0000153,0.0000134  c2.508358,2.0140629,6.2518997,0.4634361,6.6014175-2.734396l0.0000038-0.00002  c0.4328995-3.9607286,5.7073975-5.0098906,7.6230545-1.5163202l0.0000076,0.0000181  C47.9740105,14.939642,52.0259895,14.939642,53.5726624,12.1189852z"></path></svg>