<svg height='400px' width='400px'  fill="#9FA6B2" xmlns="http://www.w3.org/2000/svg" xmlns:xlink="http://www.w3.org/1999/xlink" version="1.1" x="0px" y="0px" viewBox="0 0 100 100" style="enable-background:new 0 0 100 100;" xml:space="preserve"><path d="M90,50c0-2.9456177-1.3837891-5.5630493-3.5314941-7.2540283c1.3370361-2.3841553,1.6140137-5.3319702,0.4866943-8.0533447  s-3.4074707-4.6100464-6.0386963-5.3504028c0.322876-2.7142944-0.5493164-5.5436401-2.6322021-7.6265259  c-2.0828857-2.0828247-4.9122314-2.9550781-7.6265869-2.6321411c-0.7404785-2.6312866-2.6290283-4.911499-5.3504028-6.0387573  c-2.7213135-1.1271973-5.6691284-0.8502808-8.0532837,0.4867554C55.5630493,11.3839111,52.9455566,10,50,10  s-5.5630493,1.3839111-7.2540283,3.5315552c-2.3841553-1.3370361-5.3319702-1.6139526-8.0532837-0.4867554  c-2.7213745,1.1272583-4.6099854,3.4074707-5.3504028,6.0387573c-2.7143555-0.322937-5.5437012,0.5493164-7.6265869,2.6321411  c-2.0828247,2.0828857-2.9550781,4.9122314-2.6321411,7.6265259c-2.6312866,0.7403564-4.911499,2.6290283-6.0387573,5.3504028  s-0.8503418,5.6691895,0.4867554,8.0533447C11.3838501,44.4369507,10,47.0543823,10,50s1.3838501,5.5629883,3.5315552,7.2539673  c-1.3370972,2.3841553-1.6140137,5.3319702-0.4867554,8.0533447s3.4074707,4.6100464,6.0387573,5.3504028  c-0.322937,2.7143555,0.5493164,5.5437012,2.6321411,7.6265259c2.0828857,2.0828857,4.9122925,2.9551392,7.6266479,2.6322021  c0.7404175,2.6313477,2.6289673,4.911499,5.3503418,6.0386963c2.7213135,1.1271973,5.6691284,0.8502808,8.0532227-0.4867554  C44.4368896,88.6160889,47.0543823,90,50,90s5.5631104-1.3839111,7.2540894-3.5316162  c2.3840942,1.3370361,5.3319092,1.6139526,8.0532227,0.4867554c2.7213745-1.1271973,4.6099243-3.4073486,5.3504028-6.0386963  c2.7143555,0.322937,5.5437012-0.5493164,7.6265869-2.6322021c2.0828857-2.0828247,2.9550781-4.9121704,2.6322021-7.6265259  c2.6312256-0.7403564,4.911377-2.6290283,6.0386963-5.3504028s0.8503418-5.6691895-0.4866943-8.0533447  C88.6162109,55.5629883,90,52.9456177,90,50z"></path></svg>