<svg height='400px' width='400px'  fill="#9FA6B2" xmlns="http://www.w3.org/2000/svg" xmlns:xlink="http://www.w3.org/1999/xlink" version="1.1" x="0px" y="0px" viewBox="0 0 100 100" style="enable-background:new 0 0 100 100;" xml:space="preserve"><path d="M79.6455078,15.1464844C77.1494141,17.6425781,74.7915039,20,69.9985352,20  c-4.793457,0-7.1513672-2.3574219-9.6474609-4.8535156C57.8208008,12.6162109,55.2041016,10,49.996582,10  c-5.206543,0-7.8227539,2.6162109-10.3525391,5.1464844C37.1479492,17.6425781,34.7905273,20,29.9980469,20  s-7.1499023-2.3574219-9.6455078-4.8535156C17.8227539,12.6162109,15.206543,10,10,10v80  c5.2075195,0,7.8242188-2.6162109,10.3544922-5.1464844C22.8505859,82.3574219,25.2084961,80,30.0014648,80  c4.793457,0,7.1513672,2.3574219,9.6474609,4.8535156C42.1791992,87.3837891,44.7958984,90,50.003418,90  c5.206543,0,7.8227539-2.6162109,10.3525391-5.1464844C62.8520508,82.3574219,65.2094727,80,70.0019531,80  s7.1499023,2.3574219,9.6455078,4.8535156C82.1772461,87.3837891,84.793457,90,90,90V10  C84.7924805,10,82.1757812,12.6162109,79.6455078,15.1464844z"></path></svg>