<svg height='400px' width='400px'  fill="#9FA6B2" xmlns="http://www.w3.org/2000/svg" xmlns:xlink="http://www.w3.org/1999/xlink" version="1.1" x="0px" y="0px" viewBox="0 0 100 100" style="enable-background:new 0 0 100 100;" xml:space="preserve"><path d="M90,50c0-1.9302368-0.7371826-3.68396-1.9373169-5.0110474c0.8157349-1.5925293,1.0739136-3.4772949,0.5743408-5.3417358  s-1.6655273-3.3676147-3.1682739-4.3388672C85.8444824,33.55896,85.6060791,31.6716309,84.6409912,30  s-2.4802856-2.8217773-4.1832275-3.3710327c-0.0897827-1.7870483-0.8085938-3.5484009-2.1734619-4.913269  s-3.1262207-2.0836792-4.913269-2.1734619C72.8217773,17.8392944,71.6716309,16.3240356,70,15.3589478  s-3.55896-1.2034912-5.3083496-0.8276978c-0.9712524-1.5027466-2.4744263-2.6687012-4.3388672-3.1682739  s-3.7492065-0.241394-5.3417358,0.5743408C53.6838989,10.7371826,51.9301758,10,50,10s-3.6838989,0.7371826-5.0110474,1.9373169  c-1.5925293-0.8157349-3.4772949-1.0739136-5.3417358-0.5743408s-3.3676147,1.6655273-4.3388672,3.1682739  C33.55896,14.1554565,31.6716309,14.3938599,30,15.3589478s-2.8217773,2.4803467-3.3710327,4.1832886  c-1.7870483,0.0897827-3.5484009,0.8085938-4.913269,2.1734619s-2.0836792,3.1262207-2.1734619,4.913269  C17.8392944,27.1782227,16.3240967,28.3283691,15.3590088,30s-1.2034912,3.55896-0.8277588,5.3083496  c-1.5027466,0.9712524-2.6687012,2.4744263-3.1682739,4.3388672s-0.241394,3.7492065,0.5743408,5.3416748  C10.7371826,46.315979,10,48.0697632,10,50s0.7371826,3.6838989,1.9373169,5.0110474  c-0.8157349,1.5924683-1.0739136,3.4772339-0.5743408,5.3416748s1.6655273,3.3675537,3.1682739,4.3388672  C14.1554565,66.440979,14.3938599,68.3283691,15.3590088,70c0.9650879,1.6716309,2.4803467,2.8217773,4.1832275,3.3710327  c0.0897827,1.7870483,0.8085938,3.5483398,2.1734619,4.913208s3.1262207,2.0836792,4.913269,2.1734619  C27.1782227,82.1605835,28.3283691,83.6758423,30,84.6409912c1.6716309,0.9650879,3.55896,1.2034912,5.3083496,0.8277588  c0.9712524,1.5027466,2.4744263,2.6687012,4.3388672,3.1682739s3.7492065,0.241394,5.3417358-0.5743408  C46.31604,89.2628174,48.0697632,90,50,90s3.68396-0.7371826,5.0110474-1.9373169  c1.5925293,0.8157349,3.4772949,1.0739136,5.3417358,0.5743408s3.3676147-1.6655273,4.3388672-3.1682739  C66.44104,85.8444824,68.3283691,85.6060791,70,84.6409912c1.6716309-0.9651489,2.8217773-2.4804077,3.3710327-4.1832886  c1.7870483-0.0897827,3.5484009-0.8085938,4.913269-2.1734619s2.0836792-3.1261597,2.1734619-4.913208  C82.1606445,72.8217773,83.6759033,71.6716309,84.6409912,70c0.9651489-1.6716309,1.2035522-3.559021,0.8277588-5.3084106  c1.5027466-0.9713135,2.6687012-2.4744263,3.1682739-4.3388672s0.241394-3.7491455-0.5743408-5.3416748  C89.2628174,53.6838989,90,51.9301758,90,50z"></path></svg>