<svg height='400px' width='400px'  fill="#9FA6B2" xmlns="http://www.w3.org/2000/svg" xmlns:xlink="http://www.w3.org/1999/xlink" version="1.1" x="0px" y="0px" viewBox="0 0 100 100" style="enable-background:new 0 0 100 100;" xml:space="preserve"><g><path d="M69.9985352,47.7993507c-5.2075195,0-7.8242188-2.6162109-10.3544922-5.1464844   c-2.4960938-2.4960938-4.8540039-4.8535156-9.6474609-4.8535156c-4.7924805,0-7.1499023,2.3574219-9.6455078,4.8535156   c-2.5297852,2.5302734-5.1459961,5.1464844-10.3530273,5.1464844c-5.206543,0-7.8227539-2.6162109-10.3525391-5.1464844   C17.1499023,40.1567726,14.7924805,37.7993507,10,37.7993507V10c5.206543,0,7.8227539,2.6162109,10.3525391,5.1464844   C22.8481445,17.6425781,25.2055664,20,29.9980469,20s7.1499023-2.3574219,9.6459961-4.8535156   C42.1738281,12.6162109,44.7900391,10,49.996582,10c5.2075195,0,7.8242188,2.6162109,10.3544922,5.1464844   C62.847168,17.6425781,65.2050781,20,69.9985352,20c4.7929688,0,7.1508789-2.3574219,9.6469727-4.8535156   C82.1757812,12.6162109,84.7924805,10,90,10v27.7993507c-4.793457,0-7.1513672,2.3574219-9.6474609,4.8535156   C77.8222656,45.1831398,75.2060547,47.7993507,69.9985352,47.7993507z"></path></g><g><path d="M30.0014648,52.2006493c5.2075195,0,7.8242188,2.6162109,10.3544922,5.1464844   c2.4960938,2.4960938,4.8540039,4.8535156,9.6474609,4.8535156c4.7924805,0,7.1499023-2.3574219,9.6455078-4.8535156   c2.5297852-2.5302734,5.1459961-5.1464844,10.3530273-5.1464844c5.206543,0,7.8227539,2.6162109,10.3525391,5.1464844   C82.8500977,59.8432274,85.2075195,62.2006493,90,62.2006493V90c-5.206543,0-7.8227539-2.6162109-10.3525391-5.1464844   C77.1518555,82.3574219,74.7944336,80,70.0019531,80s-7.1499023,2.3574219-9.6459961,4.8535156   C57.8261719,87.3837891,55.2099609,90,50.003418,90c-5.2075195,0-7.8242188-2.6162109-10.3544922-5.1464844   C37.152832,82.3574219,34.7949219,80,30.0014648,80c-4.7929688,0-7.1508789,2.3574219-9.6469727,4.8535156   C17.8242188,87.3837891,15.2075195,90,10,90V62.2006493c4.793457,0,7.1513672-2.3574219,9.6474609-4.8535156   C22.1777344,54.8168602,24.7939453,52.2006493,30.0014648,52.2006493z"></path></g></svg>