<svg height='400px' width='400px'  fill="#9FA6B2" xmlns="http://www.w3.org/2000/svg" xmlns:xlink="http://www.w3.org/1999/xlink" version="1.1" x="0px" y="0px" viewBox="0 0 100 100" style="enable-background:new 0 0 100 100;" xml:space="preserve"><path d="M52.4609871,11.7372799l0.0000076-0.0000191c0.9446831-2.6521492,4.8389244-2.1394625,5.0649948,0.6668196v0.00002  c0.1972847,2.4489765,3.3589211,3.296134,4.754261,1.2739l0.0000114-0.0000162  c1.5989227-2.317277,5.2277794-0.8141556,4.7198219,1.9550152v0.0000191  c-0.4432831,2.4165916,2.3913651,4.0531731,4.2625504,2.4609871l0.0000153-0.0000134  c2.1441956-1.8244858,5.2603683,0.5666351,4.053009,3.1099815l-0.0000076,0.0000172  c-1.0536346,2.2195187,1.2608414,4.5339947,3.4803619,3.48036l0.0000153-0.0000076  c2.5433426-1.2073593,4.9344635,1.9088097,3.1099777,4.0530052l-0.0000076,0.0000153  c-1.5921936,1.8711891,0.0443954,4.7058315,2.4609833,4.2625523l0.0000153-0.0000038  c2.7691727-0.5079536,4.2722931,3.120903,1.9550171,4.7198257l-0.0000153,0.0000114  c-2.0222321,1.39534-1.1750793,4.5569763,1.2739029,4.754261h0.0000153c2.806282,0.2260704,3.3189697,4.1203117,0.6668243,5.0649948  l-0.0000229,0.0000076c-2.3144684,0.8244057-2.3144684,4.0975685,0,4.9219742l0.0000229,0.0000076  c2.6521454,0.9446831,2.1394577,4.8389244-0.6668243,5.0649948h-0.0000153  c-2.4489822,0.1972847-3.2961349,3.3589211-1.2739029,4.754261l0.0000153,0.0000114  c2.317276,1.5989227,0.8141556,5.2277794-1.9550171,4.7198219h-0.0000153  c-2.4165878-0.4432831-4.0531769,2.3913651-2.4609833,4.2625504l0.0000076,0.0000153  c1.8244858,2.1441956-0.5666351,5.2603683-3.1099777,4.053009l-0.0000153-0.0000076  c-2.2195206-1.0536346-4.5339966,1.2608414-3.4803619,3.4803619l0.0000076,0.0000153  c1.2073593,2.5433426-1.9088135,4.9344635-4.053009,3.1099777l-0.0000153-0.0000076  c-1.8711853-1.5921936-4.7058334,0.0443954-4.2625504,2.4609833v0.0000153  c0.5079575,2.7691727-3.1208992,4.2722931-4.7198219,1.9550171l-0.0000114-0.0000153  c-1.39534-2.0222321-4.5569763-1.1750793-4.754261,1.2739029v0.0000153  c-0.2260704,2.806282-4.1203117,3.3189697-5.0649948,0.6668243l-0.0000076-0.0000229  c-0.8244057-2.3144684-4.0975685-2.3144684-4.9219742,0l-0.0000076,0.0000229  c-0.9446831,2.6521454-4.8389244,2.1394577-5.0649948-0.6668243v-0.0000153  c-0.1972847-2.4489822-3.3589211-3.2961349-4.754261-1.2739029l-0.0000114,0.0000153  c-1.5989227,2.317276-5.2277794,0.8141556-4.7198257-1.9550171l0.0000038-0.0000153  c0.4432793-2.4165878-2.3913631-4.0531769-4.2625523-2.4609833l-0.0000153,0.0000076  c-2.1441956,1.8244858-5.2603645-0.5666351-4.0530052-3.1099777l0.0000076-0.0000153  c1.0536346-2.2195206-1.2608414-4.5339966-3.48036-3.4803619l-0.0000172,0.0000076  c-2.5433464,1.2073593-4.9344673-1.9088135-3.1099815-4.053009l0.0000134-0.0000153  c1.592186-1.8711853-0.0443954-4.7058334-2.4609871-4.2625504h-0.0000191  c-2.7691708,0.5079575-4.2722921-3.1208992-1.9550152-4.7198219l0.0000162-0.0000114  c2.022234-1.39534,1.1750765-4.5569763-1.2739-4.754261h-0.00002c-2.806282-0.2260704-3.3189688-4.1203117-0.6668196-5.0649948  l0.0000191-0.0000076c2.3144684-0.8244057,2.3144684-4.0975685,0-4.9219742l-0.0000191-0.0000076  c-2.6521492-0.9446831-2.1394625-4.8389244,0.6668196-5.0649948h0.00002c2.4489765-0.1972847,3.296134-3.3589211,1.2739-4.754261  l-0.0000162-0.0000114c-2.317277-1.5989227-0.8141556-5.2277794,1.9550152-4.7198257l0.0000191,0.0000038  c2.4165916,0.4432793,4.0531731-2.3913631,2.4609871-4.2625523l-0.0000134-0.0000153  c-1.8244858-2.1441956,0.5666351-5.2603645,3.1099815-4.0530052l0.0000172,0.0000076  c2.2195187,1.0536346,4.5339947-1.2608414,3.48036-3.48036l-0.0000076-0.0000172  c-1.2073593-2.5433464,1.9088097-4.9344673,4.0530052-3.1099815l0.0000153,0.0000134  c1.8711891,1.592186,4.7058315-0.0443954,4.2625523-2.4609871l-0.0000038-0.0000191  c-0.5079536-2.7691708,3.120903-4.2722921,4.7198257-1.9550152l0.0000114,0.0000162  c1.39534,2.022234,4.5569763,1.1750765,4.754261-1.2739v-0.00002c0.2260704-2.806282,4.1203117-3.3189688,5.0649948-0.6668196  l0.0000076,0.0000191C48.3634186,14.0517483,51.6365814,14.0517483,52.4609871,11.7372799z"></path></svg>