<svg height='400px' width='400px'  fill="#9FA6B2" xmlns="http://www.w3.org/2000/svg" xmlns:xlink="http://www.w3.org/1999/xlink" version="1.1" x="0px" y="0px" viewBox="0 0 100 100" style="enable-background:new 0 0 100 100;" xml:space="preserve"><path d="M68.2594604,10.0000114L68.2594757,10l0.0000076,0.0000219  c1.406189,13.1292486,10.2820053,24.2591705,22.7691727,28.5516396l0.0000153,0.0000076l-0.0000153,0.0000153  c-9.3881073,9.2853584-12.5558548,23.1641426-8.1262207,35.6033134l0.0000076,0.0000229L82.90242,74.155014  c-13.1129761-1.5505905-25.9389038,4.6260452-32.9024086,15.8449707L50,90l-0.0000114-0.0000153  C43.0364838,78.7810593,30.2105579,72.6044235,17.09758,74.155014l-0.0000229,0.0000076l0.0000076-0.0000229  c4.4296303-12.4391708,1.2618885-26.317955-8.1262236-35.6033134l-0.0000153-0.0000153l0.00002-0.0000076  c12.4871635-4.292469,21.3629799-15.4223919,22.7691746-28.5516396L31.7405224,10l0.0000172,0.0000114  C42.8821487,17.0865574,57.1178513,17.0865574,68.2594604,10.0000114z"></path></svg>