<svg height='400px' width='400px'  fill="#9FA6B2" xmlns="http://www.w3.org/2000/svg" xmlns:xlink="http://www.w3.org/1999/xlink" version="1.1" x="0px" y="0px" viewBox="0 0 100 100" style="enable-background:new 0 0 100 100;" xml:space="preserve"><path d="M55.3087502,12.2913313l0.0000191-0.0000172c4.2357216-4.4692864,11.7611618-2.0241222,12.5609589,4.0813036v0.0000229  c0.5447006,4.1580811,4.4668503,7.0076923,8.5897446,6.2408123l0.0000229-0.0000057  c6.0537491-1.1260319,10.7047272,5.2754917,7.7630997,10.684988L84.22258,33.2984581  c-2.0033875,3.684124-0.5052643,8.2948914,3.2809906,10.097847l0.0000229,0.0000076  c5.5594559,2.6473274,5.5594559,10.5600471,0,13.2073746l-0.0000229,0.0000076  c-3.7862549,1.8029556-5.2843781,6.413723-3.2809906,10.0978508l0.0000153,0.0000153  c2.9416275,5.4095001-1.7093506,11.8110275-7.7630997,10.6849899h-0.0000229  c-4.1228943-0.7668839-8.0450439,2.0827255-8.5897446,6.2408066v0.0000229  c-0.7997971,6.1054306-8.3252373,8.5505905-12.5609589,4.0813065l-0.0000191-0.0000153  c-2.8847275-3.0438004-7.7327728-3.0438004-10.6175003,0l-0.0000191,0.0000153  c-4.2357216,4.4692841-11.7611656,2.0241241-12.560955-4.0813065l-0.0000038-0.0000229  c-0.5446968-4.1580811-4.4668503-7.0076904-8.5897427-6.2408066h-0.0000229  c-6.0537529,1.1260376-10.7047319-5.2754898-7.7630978-10.6849899l0.0000105-0.0000153  c2.0033903-3.6841278,0.5052614-8.2948952-3.2809887-10.0978508l-0.000021-0.0000076  c-5.5594554-2.6473274-5.5594554-10.5600471,0-13.2073746l0.000021-0.0000076  c3.7862501-1.8029556,5.284379-6.413723,3.2809887-10.097847l-0.0000105-0.0000229  c-2.9416342-5.4094963,1.7093449-11.8110199,7.7630978-10.684988l0.0000229,0.0000057  c4.1228924,0.76688,8.0450459-2.0827312,8.5897427-6.2408123l0.0000038-0.0000229  c0.7997894-6.1054258,8.3252335-8.5505905,12.560955-4.0813036l0.0000191,0.0000172  C47.5759773,15.3351259,52.4240227,15.3351259,55.3087502,12.2913313z"></path></svg>