<svg height='400px' width='400px'  fill="#9FA6B2" xmlns="http://www.w3.org/2000/svg" xmlns:xlink="http://www.w3.org/1999/xlink" version="1.1" x="0px" y="0px" viewBox="0 0 100 100" style="enable-background:new 0 0 100 100;" xml:space="preserve"><path d="M85.1492462,56.3462601l0.0000153,0.0000267c4.4742203,9.2816353-1.8033447,20.1546898-12.0785904,20.9207191  l-0.0000229,0.0000076c-4.4393234,0.3309555-8.4857712,2.6671753-10.9920464,6.3462601l-0.0000153,0.0000229  c-5.8010254,8.5156021-18.3561478,8.5156021-24.1571732,0l-0.0000153-0.0000229  c-2.5062752-3.6790848-6.5527248-6.0153046-10.9920444-6.3462601l-0.0000286-0.0000076  c-10.2752438-0.7660294-16.5528069-11.6390839-12.0785847-20.9207191l0.0000114-0.0000267  c1.9330444-4.0100403,1.9330444-8.6824799,0-12.6925201l-0.0000114-0.0000267  c-4.4742212-9.2816353,1.8033409-20.1546936,12.0785847-20.920723l0.0000286-0.0000019  c4.4393196-0.3309555,8.4857693-2.6671734,10.9920444-6.3462601l0.0000153-0.0000229  c5.8010254-8.5156069,18.3561478-8.5156069,24.1571732,0l0.0000153,0.0000229  c2.5062752,3.6790867,6.5527229,6.0153046,10.9920464,6.3462601l0.0000229,0.0000019  c10.2752457,0.7660294,16.5528107,11.6390877,12.0785904,20.920723l-0.0000153,0.0000267  C83.2162018,47.6637802,83.2162018,52.3362198,85.1492462,56.3462601z"></path></svg>