<svg height='400px' width='400px'  fill="#9FA6B2" xmlns="http://www.w3.org/2000/svg" xmlns:xlink="http://www.w3.org/1999/xlink" version="1.1" x="0px" y="0px" viewBox="0 0 100 100" style="enable-background:new 0 0 100 100;" xml:space="preserve"><path d="M70.9343262,30.9343262c-0.6654053,0-1.3224487,0.0350952-1.9702759,0.1016235  c0.0665283-0.6478271,0.1016235-1.3048706,0.1016235-1.9702759C69.0656738,18.5360107,60.5296631,10,50,10  s-19.0656738,8.5360107-19.0656738,19.0656738c0,0.6654053,0.0350952,1.3224487,0.1016235,1.9702759  c-0.6478271-0.0665283-1.3048706-0.1016235-1.9702759-0.1016235C18.5360107,30.9343262,10,39.4702759,10,50  c0,10.5296631,8.5360107,19.0656738,19.0656738,19.0656738c0.6654053,0,1.3224487-0.0350952,1.9702759-0.1016235  c-0.0665283,0.6478271-0.1016235,1.3048706-0.1016235,1.9702759C30.9343262,81.4639893,39.4703369,90,50,90  s19.0656738-8.5360107,19.0656738-19.0656738c0-0.6654053-0.0350952-1.3224487-0.1016235-1.9702759  c0.6478271,0.0665283,1.3048706,0.1016235,1.9702759,0.1016235C81.4639893,69.0656738,90,60.5296631,90,50  C90,39.4702759,81.4639893,30.9343262,70.9343262,30.9343262z"></path></svg>