<svg height='400px' width='400px'  fill="#9FA6B2" xmlns="http://www.w3.org/2000/svg" xmlns:xlink="http://www.w3.org/1999/xlink" version="1.1" x="0px" y="0px" viewBox="0 0 100 100" style="enable-background:new 0 0 100 100;" xml:space="preserve"><path d="M84.6409912,30c-3.7581787-6.5093384-10.9598389-9.7850342-17.9754639-8.8657227C63.9538574,14.598938,57.5163574,10,50,10  s-13.9538574,4.598938-16.6655273,11.1342773C26.3188477,20.2149658,19.1171875,23.4906616,15.3590088,30  c-3.7581787,6.5092773-2.9942627,14.3839111,1.3096924,20c-4.3039551,5.6160889-5.0678711,13.4907227-1.3096924,20  s10.9598389,9.7849731,17.9753418,8.8656616C36.0460205,85.401001,42.4836426,90,50,90s13.9539795-4.598999,16.6656494-11.1343384  C73.6811523,79.7849731,80.8828125,76.5092773,84.6409912,70s2.9942627-14.3839111-1.3096924-20  C87.6352539,44.3839111,88.3991699,36.5092773,84.6409912,30z"></path></svg>