<svg height='400px' width='400px'  fill="#9FA6B2" xmlns="http://www.w3.org/2000/svg" xmlns:xlink="http://www.w3.org/1999/xlink" version="1.1" x="0px" y="0px" viewBox="0 0 100 100" style="enable-background:new 0 0 100 100;" xml:space="preserve"><path d="M62.9967766,10.0000134L62.996788,10l0.0000038,0.0000191  c1.3335152,10.1797295,10.9356422,17.1560879,21.0292244,15.2786255l0.0000153-0.0000038l-0.0000076,0.0000172  c-4.9046631,9.0193958-1.236969,20.3073788,8.0324478,24.7213345L92.0584869,50l-0.0000153,0.0000076  c-9.2694168,4.4139557-12.9371109,15.7019424-8.0324478,24.7213364l0.0000076,0.0000153h-0.0000153  C73.9324341,72.843895,64.330307,79.8202515,62.9967918,89.9999847L62.996788,90l-0.0000114-0.0000153  c-7.0623322-7.4517517-18.931221-7.4517517-25.9935532,0L37.003212,90l-0.0000038-0.0000153  C35.6696968,79.8202515,26.067564,72.843895,15.9739866,74.7213593h-0.0000191l0.0000095-0.0000153  c4.9046602-9.0193939,1.2369719-20.3073807-8.0324488-24.7213364L7.9415112,50l0.0000172-0.0000076  c9.2694206-4.4139557,12.937109-15.7019386,8.0324488-24.7213345l-0.0000095-0.0000172l0.0000191,0.0000038  c10.0935774,1.8774624,19.6957092-5.098896,21.0292206-15.2786255L37.003212,10l0.0000114,0.0000134  C44.0655556,17.4517689,55.9344444,17.4517689,62.9967766,10.0000134z"></path></svg>