<svg height='400px' width='400px'  fill="#9FA6B2" xmlns="http://www.w3.org/2000/svg" xmlns:xlink="http://www.w3.org/1999/xlink" version="1.1" x="0px" y="0px" viewBox="0 0 100 100" style="enable-background:new 0 0 100 100;" xml:space="preserve"><path d="M56.4044647,11.8776665l0.0000229-0.0000143c7.4683838-4.7502146,17.3274307-0.002346,18.2700272,8.7983809v0.0000267  c0.4932251,4.6050549,3.6063919,8.508852,7.9862442,10.0144253l0.0000229,0.0000095  c8.3703232,2.8773041,10.8053131,13.5456696,4.5123215,19.769783l-0.0000153,0.0000191  c-3.2928619,3.2568169-4.4039383,8.1247711-2.8502579,12.4877853l0.0000076,0.0000229  c2.9692459,8.3381577-3.8534317,16.8935242-12.6432495,15.8541336h-0.0000229  c-4.59935-0.543869-9.0980186,1.6225739-11.540451,5.5575867l-0.0000153,0.0000229  c-4.6677399,7.5202026-15.6104584,7.5202026-20.2781982,0l-0.0000153-0.0000229  c-2.4424324-3.9350128-6.9410973-6.1014557-11.5404472-5.5575867h-0.0000267  c-8.7898216,1.0393906-15.6124964-7.515976-12.6432505-15.8541336l0.0000095-0.0000229  c1.5536833-4.3630142,0.4426031-9.2309685-2.850256-12.4877853l-0.0000191-0.0000191  c-6.2929883-6.2241135-3.8580036-16.8924789,4.5123243-19.769783l0.0000248-0.0000095  c4.3798447-1.5055733,7.4930191-5.4093704,7.9862385-10.0144253l0.0000019-0.0000267  c0.9425926-8.8007269,10.8016434-13.5485954,18.2700272-8.7983809l0.0000229,0.0000143  C47.5034294,14.3632574,52.4965706,14.3632574,56.4044647,11.8776665z"></path></svg>