<svg height='400px' width='400px'  fill="#9FA6B2" xmlns="http://www.w3.org/2000/svg" xmlns:xlink="http://www.w3.org/1999/xlink" version="1.1" x="0px" y="0px" viewBox="0 0 100 100" style="enable-background:new 0 0 100 100;" xml:space="preserve"><polygon points="50,24.5102215 57.9564934,10 59.7545166,26.4505157 72.6581802,16.0896378 68.0239944,31.9760036   83.9103622,27.3418198 73.5494843,40.2454834 90,42.0435066 75.4897766,50 90,57.9564934 73.5494843,59.7545166   83.9103622,72.6581802 68.0239944,68.0239944 72.6581802,83.9103622 59.7545166,73.5494843 57.9564934,90 50,75.4897766   42.0435066,90 40.2454834,73.5494843 27.3418198,83.9103622 31.9760036,68.0239944 16.0896378,72.6581802 26.4505157,59.7545166   10,57.9564934 24.5102215,50 10,42.0435066 26.4505157,40.2454834 16.0896378,27.3418198 31.9760036,31.9760036   27.3418198,16.0896378 40.2454834,26.4505157 42.0435066,10 "></polygon></svg>