<svg height='400px' width='400px'  fill="#9FA6B2" xmlns="http://www.w3.org/2000/svg" xmlns:xlink="http://www.w3.org/1999/xlink" version="1.1" x="0px" y="0px" viewBox="0 0 100 100" style="enable-background:new 0 0 100 100;" xml:space="preserve"><path d="M66.5685272,10.0000134L66.5685425,10v0.000021c1.5077438,12.2622013,11.1692352,21.9236927,23.4314346,23.4314327  L90,33.4314575l-0.0000153,0.0000153c-7.6045532,9.7368202-7.6045532,23.4002342,0,33.1370544L90,66.5685425h-0.0000229  c-12.2621994,1.5077438-21.9236908,11.1692352-23.4314346,23.4314346V90l-0.0000153-0.0000153  c-9.7368202-7.6045532-23.4002342-7.6045532-33.1370544,0L33.4314575,90l-0.0000038-0.0000229  c-1.50774-12.2621994-11.1692314-21.9236908-23.4314327-23.4314346H10l0.0000134-0.0000153  c7.6045513-9.7368202,7.6045513-23.4002342,0-33.1370544L10,33.4314575l0.000021-0.0000038  c12.2622013-1.50774,21.9236927-11.1692314,23.4314327-23.4314327L33.4314575,10l0.0000153,0.0000134  C43.168293,17.6045647,56.831707,17.6045647,66.5685272,10.0000134z"></path></svg>