<svg height='400px' width='400px'  fill="#9FA6B2" xmlns="http://www.w3.org/2000/svg" xmlns:xlink="http://www.w3.org/1999/xlink" version="1.1" x="0px" y="0px" viewBox="0 0 100 100" style="enable-background:new 0 0 100 100;" xml:space="preserve"><path d="M63.9768677,38.9231567c2.4161377-3.0446167,3.8695068-6.8880005,3.8695068-11.0767822  C67.8463745,17.9900513,59.8562622,10,50,10s-17.8463745,7.9900513-17.8463745,17.8463745  c0,4.1887817,1.4533691,8.0321655,3.8695068,11.0767822C33.6069946,41.9677734,32.1536255,45.8112183,32.1536255,50  s1.4533691,8.0321655,3.8695068,11.0767822c-2.4161377,3.0446167-3.8695068,6.8880615-3.8695068,11.0768433  C32.1536255,82.0098877,40.1437378,90,50,90s17.8463745-7.9901123,17.8463745-17.8463745  c0-4.1887817-1.4533691-8.0322266-3.8695068-11.0768433C66.3930054,58.0321655,67.8463745,54.1887817,67.8463745,50  S66.3930054,41.9677734,63.9768677,38.9231567z"></path></svg>